<?xml version="1.0" standalone="no"?>
<!DOCTYPE svg PUBLIC "-//W3C//DTD SVG 20010904//EN"
 "http://www.w3.org/TR/2001/REC-SVG-20010904/DTD/svg10.dtd">
<svg version="1.0" xmlns="http://www.w3.org/2000/svg"
 width="500.000000pt" height="500.000000pt" viewBox="0 0 500.000000 500.000000"
 preserveAspectRatio="xMidYMid meet">
<metadata>
Created by potrace 1.16, written by Peter Selinger 2001-2019
</metadata>
<g transform="translate(0.000000,500.000000) scale(0.100000,-0.100000)"
fill="#000000" stroke="none">
<path d="M2700 3786 c0 -37 -2 -39 -55 -51 l-30 -7 38 -20 c36 -18 39 -22 33
-54 -8 -40 5 -44 32 -9 19 24 21 24 56 10 41 -17 43 -15 19 26 -15 25 -15 30
-1 46 34 40 33 46 -10 38 -35 -6 -41 -4 -46 13 -4 11 -13 26 -21 32 -13 11
-15 7 -15 -24z"/>
<path d="M2360 3785 l-23 -25 -34 21 c-35 22 -40 16 -21 -26 10 -23 8 -29 -18
-57 l-29 -31 42 7 c41 6 42 5 54 -28 13 -35 29 -39 29 -8 0 28 16 44 51 51
l34 8 -31 18 c-29 17 -31 23 -26 57 2 21 3 38 0 38 -2 0 -15 -11 -28 -25z"/>
<path d="M1984 3598 c-8 -29 -15 -34 -49 -38 l-40 -5 32 -24 c28 -21 30 -26
21 -53 -14 -39 -5 -45 28 -19 l27 21 22 -20 c30 -28 37 -25 29 15 -5 31 -3 38
22 58 l29 22 -40 5 c-34 4 -41 9 -49 38 -5 17 -12 32 -16 32 -4 0 -11 -15 -16
-32z"/>
<path d="M3077 3596 c-17 -26 -23 -28 -59 -22 -41 7 -43 2 -10 -36 12 -15 12
-21 -8 -49 l-23 -31 41 7 c37 6 42 4 59 -21 l18 -28 5 39 c4 34 9 41 38 49 17
5 32 12 32 16 0 4 -15 11 -32 16 -29 8 -34 15 -38 49 l-5 39 -18 -28z"/>
<path d="M2393 3505 c-4 -11 -8 -50 -8 -86 0 -57 5 -77 38 -140 l38 -74 -45
44 c-24 24 -52 59 -62 77 -10 19 -22 34 -26 34 -14 0 -9 -106 7 -150 8 -24 31
-65 51 -93 l36 -50 -30 22 c-17 12 -41 38 -53 58 -20 32 -23 34 -30 17 -13
-33 -10 -153 5 -189 26 -62 76 -125 127 -159 l50 -33 -41 -52 c-86 -108 -167
-144 -315 -139 -92 3 -95 2 -75 -14 29 -24 171 -77 239 -90 70 -13 154 -5 212
20 60 26 114 72 194 164 89 102 121 122 186 114 l49 -7 -11 28 c-15 42 -67 91
-116 109 -42 16 -115 16 -157 -1 -17 -7 -17 -6 -6 15 7 13 12 48 12 77 0 65
-36 145 -119 271 -31 48 -76 123 -99 167 -36 67 -44 77 -51 60z"/>
<path d="M3170 3387 c55 -123 73 -223 67 -377 -3 -102 -10 -152 -27 -205 -89
-278 -305 -481 -605 -568 -42 -13 -45 -15 -20 -16 56 -1 204 38 277 74 200 97
343 263 409 475 32 100 35 330 6 425 -24 77 -79 192 -111 230 -25 29 -25 29 4
-38z"/>
<path d="M2905 3401 c-28 -16 -79 -59 -114 -96 -50 -54 -59 -61 -46 -34 10 19
31 51 47 72 27 33 28 37 10 37 -10 0 -37 -13 -58 -28 -44 -32 -124 -117 -124
-131 0 -5 15 -40 33 -77 26 -57 32 -81 32 -137 l0 -69 32 37 c17 20 41 62 54
93 54 137 118 248 187 324 28 31 31 38 16 38 -11 0 -42 -13 -69 -29z"/>
<path d="M1754 3244 c6 -36 4 -40 -26 -58 -28 -17 -30 -20 -13 -23 60 -11 65
-14 65 -36 0 -43 15 -49 33 -12 16 34 19 35 52 29 42 -7 43 -3 10 29 -25 23
-25 24 -10 61 9 21 12 36 8 34 -4 -2 -20 -10 -36 -18 -25 -12 -30 -11 -58 9
l-31 23 6 -38z"/>
<path d="M1805 2873 c-19 -30 -23 -32 -59 -26 l-39 6 19 -26 c10 -15 23 -27
27 -27 5 0 -1 -16 -13 -35 -23 -37 -18 -41 26 -25 24 9 31 7 57 -17 l29 -28
-7 41 c-6 41 -6 42 29 54 39 12 40 30 2 30 -29 0 -43 16 -48 55 l-4 30 -19
-32z"/>
<path d="M1958 2525 c-3 -35 -7 -40 -35 -49 -18 -5 -33 -12 -33 -16 0 -4 15
-11 33 -16 28 -8 33 -15 37 -49 l5 -40 24 32 c21 28 26 30 53 21 36 -13 47 -4
25 20 -21 23 -22 46 -2 62 25 21 17 31 -20 24 -29 -5 -38 -2 -59 22 l-24 29
-4 -40z"/>
<path d="M2344 2334 c-19 -27 -20 -27 -53 -10 -18 10 -35 16 -37 14 -2 -2 5
-17 15 -33 18 -30 18 -30 -8 -64 l-25 -33 39 6 c38 7 41 5 60 -26 17 -28 20
-30 23 -13 9 57 13 65 35 65 43 0 49 15 13 33 -32 15 -34 19 -29 52 7 42 -6
45 -33 9z"/>
</g>
</svg>
